<?xml version="1.0" standalone="yes"?>
<svg width="529" height="131">
<path style="fill:#2f1d33; stroke:none;" d="M0 0L0 131L529 131L529 0L0 0z"/>
<path style="fill:#7a3667; stroke:none;" d="M7 4L7 5L272 5L248 4L194 4L7 4z"/>
<path style="fill:#902f50; stroke:none;" d="M272 4L272 5L521 5L498 4L448 4L272 4z"/>
<path style="fill:#7f4292; stroke:none;" d="M92 127L92 126L88 126L88 124L96 123L94 118L104 118L102 97L114 97L114 96C101.876 96 90.2353 92.6634 84.0494 81C73.068 60.2947 80.3381 27.8645 108 33L108 32L96 26C96.3065 21.5309 97.5443 19.165 102 18L102 16L92.8711 10.3179L74 10L74 9L96 7L96 5L31 5C24.7921 5 11.5961 2.50568 6.3179 6.02778C1.39329 9.31396 4 24.7148 4 30L4 100C4 105.551 1.19828 122.556 6.3179 125.972C11.4261 129.381 24.0029 127 30 127L92 127z"/>
<path style="fill:#9d3872; stroke:none;" d="M74 9L74 10L92.8711 10.6026L102 16L102 18C97.0584 18.7264 96.1429 21.2888 96 26C129.366 31.2033 144.832 97 102 97L104 118L94 118L96 123L88 124L88 126L147 127L251 127L251 126L214 122L214 121L222 121L222 118L230 118L230 116L222 114L222 97L234 97L234 96C220.625 96 199.009 101.034 194.433 84C193.035 78.7953 194 72.3627 194 67L195 67C195 71.491 193.255 80.705 196.179 84.3966C200.007 89.2299 221.028 86 227 86C227 71.8787 220.249 74 208 74C208.028 66.142 210.142 64.0278 218 64C217.994 56.4666 216.895 54.0715 209 54L209 46L226 46L226 34C220.306 34 197.262 31.1123 196 37L195 37L195 32C207.938 32 220.955 30.5784 232 38C227.84 28.7775 218.638 31 210 31L210 10L220 9L220 8L212 8L212 7L226 6C214.782 1.29276 195.206 5 183 5C155.574 5 127.389 3.10088 100.039 5.05402C91.3949 5.67136 82.8077 8.62183 74 9z"/>
<path style="fill:#b1325f; stroke:none;" d="M212 7L212 8L220 8L220 9L210 10L210 31C215.026 31 223.35 29.394 227.556 32.6034C232.067 36.0448 239.135 49.4516 232.566 53.9722C229.476 56.0992 223.58 55 220 55L220 56C226.59 61.6145 225.352 65.7507 228.394 73C233.419 84.9741 241.395 97 222 97L222 114L230 116L230 118L222 118L222 121L214 121L214 122L255 126.961L364 127L364 126L336 123L336 122L338 118C341.807 117.884 344.158 117.513 346 114L342 114L342 110L348 110C347.877 106.286 347.576 104.437 344 103L344 102L348 96C335.945 96 333.038 93.3569 323 88C320.367 104.519 302.137 91.577 302 80L303 80L303 86L314 86C315.537 72.3651 322.177 84.3803 326.317 86.3966C329.231 87.8158 333.834 87 337 87L328 36L331 37C327.596 31.1208 322.18 31.0007 316 31L316 16L312 16L312 15L329 16L329 15C324.882 13.4929 321.277 13.6787 320 9L306 8L306 7L384 6C371.355 0.693832 348.777 5 335 5L258 5C243.008 5 226.666 3.50841 212 7z"/>
<path style="fill:#d1283b; stroke:none;" d="M368 6L368 7C373.897 7 380.456 5.70966 385 10L364 10L364 11L377 12L366 13L366 17L372 16L368 21L376 26L376 27L372 27L372 28C389.476 29.1365 404.998 45.969 405 63L409 62L407 75L404 74L393.621 94.0895L399 106L379 103L366 105L376 118L372 118L372 122C409.052 123.898 445.595 127 483 127L511 127C514.389 127 519.713 127.954 522.682 125.972C527.607 122.686 525 107.285 525 102L525 32C525 26.4495 527.802 9.44405 522.682 6.02778C519.713 4.04644 514.389 5 511 5L481 5C443.329 5 405.591 6 368 6z"/>
<path style="fill:#bc2f52; stroke:none;" d="M306 7L306 8L320 9C320.857 13.9939 324.691 13.8146 329 15L329 16L312 15L312 16L316 16L316 31C338.554 31.0174 341.666 60.7758 345 78C346.488 85.6905 350.703 96.0852 344 102L344 103L348 110L342 110L342 114L346 114L338 118L336 122L336 123L367 126.91L422 127L422 126L372 122L372 118L376 118C374.935 111.145 370.229 109.447 366 105L379 103L383 105L378 100C373.627 107.923 365.839 100.427 363 95L374.041 93.1435L390 97C389.067 90.9575 385.003 88.7852 380 86C401.405 80.3865 396.513 51.8794 390 36C395.45 41.569 400.755 48.2327 402.624 56C404.004 61.7324 401.975 71.3759 407 75L409 62L405 63C405 45.5238 390.353 28.5419 372 28L372 27L376 27L376 26L373 26L368 21L372 16L366 17L366 13C369.69 13.8784 374.276 15.1172 377 12L364 11L364 10L385 10C381.55 5.21604 371.561 6.69895 366 6.16975C346.252 4.29046 325.828 7 306 7z"/>
<path style="fill:#731629; stroke:none;" d="M525 7L525 124L526 124L526 43L525 7z"/>
<path style="fill:#5e2b6e; stroke:none;" d="M39 32L39 33L56 35C51.0764 31.0654 44.9783 30.5806 39 32z"/>
<path style="fill:#981735; stroke:none;" d="M367 33L367 34L384 33C378.623 29.7788 372.649 31.2091 367 33z"/>
<path style="fill:#301e36; stroke:none;" d="M93 32.5332C82.5384 35.08 80.114 47.745 80.0039 57C79.7784 75.9524 89.3774 102.49 114 95.3619C125.16 92.1312 127.984 80.1673 128 70C128.031 50.8199 115.889 26.9608 93 32.5332z"/>
<path style="fill:#702953; stroke:none;" d="M195 32L195 37L196 37L196 34L226 34L226 43L227 43L227 33L195 32z"/>
<path style="fill:#642e4e; stroke:none;" d="M247 48L258 47L258 46C243.277 45.9886 245.332 33.0392 259 33C246.921 27.9316 244.113 38.2337 247 48z"/>
<path style="fill:#841d4a; stroke:none;" d="M250 33L250 34L284 34L284 44L285 44L286 34L250 33z"/>
<path style="fill:#792640; stroke:none;" d="M438 32L439 37L438.946 45L439 67L440 67L440 34L453 34L438 32z"/>
<path style="fill:#4e0e40; stroke:none;" d="M146 33L146 34L158 34L146 33z"/>
<path style="fill:#901d46; stroke:none;" d="M304 72L305 72L309.08 45L312.434 35.0278L326 34C304.179 24.8434 304.04 57.63 304 72z"/>
<path style="fill:#881330; stroke:none;" d="M418 33L419 81L420 81L421 33L418 33z"/>
<path style="fill:#2f2035; stroke:none;" d="M432 33L432 48L432 58C432 60.347 431.02 75.7107 437.262 70.9529C440.004 68.863 439 62.9759 439 60C439.001 50.676 441.392 38.5235 432 33z"/>
<path style="fill:#8b0d22; stroke:none;" d="M479 33L479 88L493 87L493 86L480 86L481 34L495 35L479 33z"/>
<path style="fill:#312239; stroke:none;" d="M159 34L158 74L175 74L175 87L145 86C148.071 101.43 172.025 96 184 96C184 84.0622 182.441 73.051 168 73C168 59.1037 171.735 42.9963 159 34z"/>
<path style="fill:#342039; stroke:none;" d="M227 34L226 46L209 46L209 54C216.398 54.179 217.975 56.9257 218 64C209.639 64.0065 208.006 65.6395 208 74C219.699 74 226.999 72.2388 227 86C220.763 86 199.908 89.2697 196.179 83.6821C193.488 79.6489 195 71.6569 195 67L194 67C194 72.8199 192.695 80.4828 194.738 86C199.956 100.092 223.031 95 235 95C235 84.2989 231.296 80.5243 228.018 71C225.72 64.3239 226.901 60.049 220 56L220 55C223.512 55 230.372 56.3072 233.258 53.9722C239.978 48.5348 231.466 37.2894 227 34z"/>
<path style="fill:#8b1f37; stroke:none;" d="M358 48L359 48L367 34C360.805 36.7923 358.575 41.4186 358 48z"/>
<path style="fill:#321f35; stroke:none;" d="M452 34C452 50.7098 459.284 91.4507 431.001 85.3302C426.683 84.3959 423.819 81.8629 420 80C421.918 94.3461 442.891 99.9902 453.896 92.1219C464.975 84.2004 461.292 69.3134 461.015 58C460.898 53.2397 461.902 47.5555 460.272 43C458.815 38.9254 455.775 35.8404 452 34z"/>
<path style="fill:#d52637; stroke:none;" d="M481 34L480 86L493 86L494 34L481 34z"/>
<path style="fill:#4d1c5d; stroke:none;" d="M26 70L27 70C27 56.7188 27.4688 46.7898 34 35C22.9626 40.738 26 59.6544 26 70z"/>
<path style="fill:#2e1e38; stroke:none;" d="M55 35L60 51C55.4244 50.9869 45.2376 44.2721 42.6026 46.1983C38.9155 48.8937 39.997 68.1034 42.3171 71.6813C45.7115 76.9159 49.4978 70.661 49.5293 66.9992C49.5437 65.331 49.1945 63.6629 49.0887 62C48.8776 58.6799 49 55.3255 49 52C56.3905 56.6219 59.9947 59.999 69 60C68.9989 49.693 66.4117 38.2031 55 35z"/>
<path style="fill:#302239; stroke:none;" d="M285 35L284 47L272 47L272 86L258 86C263.028 97.2803 271.344 96.3466 282 95L282 56L293 56C293 47.3783 294.03 39.2494 285 35z"/>
<path style="fill:#48142a; stroke:none;" d="M494 35L493 87L480 87C484.832 97.4164 493.074 96 503 96L502 43L501 43L501 95C493.03 95 487.977 94.9234 483 88L493.972 86.3966L495 73L495 38L498 39L494 35z"/>
<path style="fill:#312239; stroke:none;" d="M328 36L337 87C330.568 87 324.601 87.8783 324 80C318.528 80.0042 314.496 79.6359 314 86L303 86L303 80L302 80C302.044 92.3851 321.478 104.714 323 88C332.102 95.3307 336.301 96 348 96C347.312 80.0211 343.731 44.0366 328 36z"/>
<path style="fill:#342137; stroke:none;" d="M390 36C394.905 53.1573 402.097 78.2588 380 86L390 97L380.129 96.4012L374.041 92.6157L363 95C364.9 100.542 375 109.037 378 100C384.565 105.049 390.713 105.931 399 106C398.242 102.08 393.974 97.8666 394.167 94.0895C394.393 89.6479 401.562 84.6491 403.185 80C408.107 65.9023 401.929 44.586 390 36z"/>
<path style="fill:#2e1f36; stroke:none;" d="M495 38L495 73L493.397 86.3966L483 88C486.79 95.789 493.398 95 501 95L501 53C501 46.5529 502.096 40.4934 495 38z"/>
<path style="fill:#591e4e; stroke:none;" d="M144 39L143 76L144 76C144 65.0184 148.311 49.2735 144 39z"/>
<path style="fill:#764775; stroke:none;" d="M104 50L103 55L116 55C116 51.9924 117.09 46.1006 114.987 43.6613C112.718 41.0297 97.7482 44.9857 96.0864 48.1944C92.908 54.3316 101.909 51.0443 104 50z"/>
<path style="fill:#a2273b; stroke:none;" d="M493 43L493 82L494 82C494 70.8276 497.311 53.274 493 43z"/>
<path style="fill:#391940; stroke:none;" d="M112 44L112 49C106.102 45.1071 100.532 45.2833 96 51L97 52C101.407 49.7068 104.119 48.4749 109 50L109 51L105 51L105 54L115 54L115 44L112 44z"/>
<path style="fill:#78273a; stroke:none;" d="M461 44L461 64L462 64L461 44z"/>
<path style="fill:#322036; stroke:none;" d="M374.299 45.7616C368.218 48.4727 368.84 76.4778 377.775 73.1991C383.909 70.9484 383.227 41.7814 374.299 45.7616z"/>
<path style="fill:#ae374a; stroke:none;" d="M503 46L503 96L504 96C504 81.9506 508.409 58.8897 503 46z"/>
<path style="fill:#392139; stroke:none;" d="M248 47C249.714 52.0379 252.651 55.1741 258 56L258 47L248 47z"/>
<path style="fill:#81224e; stroke:none;" d="M258 47L257 85L258 85C258.854 74.1841 262.271 57.178 258 47z"/>
<path style="fill:#ae3850; stroke:none;" d="M478 47L478 85L479 85C479 74.0894 482.211 57.036 478 47z"/>
<path style="fill:#7a132e; stroke:none;" d="M357 48L357 70L358 70L357 48z"/>
<path style="fill:#722745; stroke:none;" d="M381 50L381 66L382 66L381 50z"/>
<path style="fill:#523062; stroke:none;" d="M49 52L49 66L50 66L49 52z"/>
<path style="fill:#754776; stroke:none;" d="M85 58C83.7384 64.898 84.2953 71.8118 92 74C92 77.3717 92.7104 91.0864 98 83C101.668 84.3637 105.251 85.241 108.981 83.4236C115.768 80.1166 112.782 74.4768 106 78C104.588 71.5311 98.4403 73 93 73L90 65C96.5956 64.474 98.9296 54.5118 91.9414 52.4336C87.9723 51.2533 78.9238 53.9059 85 58z"/>
<path style="fill:#361d45; stroke:none;" d="M84 54L84 56L89 56C86.0569 61.8553 84.0239 69.5378 92 72C90.1385 67.47 87.2163 64.1916 91 60L94 64L94 54L84 54z"/>
<path style="fill:#652655; stroke:none;" d="M104 55L104 56L114 56L104 55z"/>
<path style="fill:#824274; stroke:none;" d="M118 63C109.081 64.4884 112.214 77.4915 121.941 75.8519C128.871 74.6836 125.218 57.256 119.044 55.7515C113.705 54.4506 116.954 61.0631 118 63z"/>
<path style="fill:#4a1533; stroke:none;" d="M318 56L317 69L321 69L318 56z"/>
<path style="fill:#3d1841; stroke:none;" d="M117 57C118.98 62.0724 119.905 64.7208 118 70L117 70L117 65L115 65L115 74L125 74L125 72L120 72C123.355 66.4791 124.468 59.3053 117 57z"/>
<path style="fill:#6f496e; stroke:none;" d="M101.603 61.0285C97.5322 64.2187 102.139 70.8299 106.683 67.9568C111.818 64.7097 106.325 57.3292 101.603 61.0285z"/>
<path style="fill:#3a173f; stroke:none;" d="M102 61L102 67L107 67C106.7 63.1356 105.911 61.6517 102 61z"/>
<path style="fill:#642b5e; stroke:none;" d="M128 64L128 73L129 73L128 64z"/>
<path style="fill:#351e3b; stroke:none;" d="M60 69C59.2143 87.2535 37.8022 92.919 29 76L28 76C29.8623 86.4407 39.0552 95.6954 50 95.9452C59.2139 96.1555 70.2825 88.3276 67.5664 78C66.6673 74.5815 64.0539 71.7841 62 69L60 69z"/>
<path style="fill:#3c1d3f; stroke:none;" d="M94 75L94 85L97 85L97 80C102.276 83.2287 109.664 84.0244 112 77C106.691 79.0751 103.985 80.5683 99 77L104 77L104 75L94 75z"/>
<path style="fill:#831a38; stroke:none;" d="M359 75L362 82L359 75z"/>
<path style="fill:#762643; stroke:none;" d="M315 79L315 80L323 80L315 79z"/>
<path style="fill:#3d2235; stroke:none;" d="M362 81C363.225 85.311 367.441 89.9472 371 85L362 81z"/>
<path style="fill:#5f2f59; stroke:none;" d="M150 86L150 87L175 87L150 86z"/>
<path style="fill:#662e53; stroke:none;" d="M201 95L201 96L234 96L201 95z"/>
<path style="fill:#752943; stroke:none;" d="M434 95L434 96L442 96L434 95z"/>
<path style="fill:#813564; stroke:none;" d="M7 127L7 128L239 128L217 127L170 127L7 127z"/>
<path style="fill:#9a2d44; stroke:none;" d="M239 127L239 128L521 128L495 127L438 127L239 127z"/>
</svg>
